<svg xmlns="http://www.w3.org/2000/svg" width="22" height="23" viewBox="0 0 22 23">
  <path id="notebook-pen" d="M20.141,6.4l1.6.659a.4.4,0,0,1,.22.528l-.39.854-2.365-.975.39-.854a.426.426,0,0,1,.55-.212ZM1.731,1.475h1.6V.511a.536.536,0,0,1,1.067,0v.964h2.34V.511A.533.533,0,0,1,7.8.511v.964h2.34V.511a.533.533,0,0,1,1.065,0v.964h2.34V.511a.533.533,0,0,1,1.065,0v.964h1.807a1.7,1.7,0,0,1,1.731,1.662V5.343a2.282,2.282,0,0,0-.343.543l-.39.854a1.813,1.813,0,0,0-.06.217,2.072,2.072,0,0,0-.113.215l-.117.262v-4.3a.688.688,0,0,0-.7-.67h-1.8v.964a.533.533,0,0,1-1.065,0V2.467h-2.34v.964a.533.533,0,0,1-1.065,0V2.467H7.8v.964a.533.533,0,0,1-1.065,0V2.467H4.395v.964a.536.536,0,0,1-1.067,0V2.467h-1.6a.685.685,0,0,0-.7.67V20.361a.688.688,0,0,0,.7.672h9.8l.109.99H1.731A1.7,1.7,0,0,1,0,20.363V3.139A1.7,1.7,0,0,1,1.731,1.475ZM3.966,17.663a.5.5,0,1,1,0-.992h9.043l-.443.992Zm0-3.272a.5.5,0,1,1,0-.992H14.191a.507.507,0,0,1,.248.066l-.413.936Zm0-3.272a.5.5,0,1,1,0-.992H14.191a.5.5,0,1,1,0,.992Zm0-3.272a.5.5,0,1,1,0-.992H14.191a.5.5,0,1,1,0,.992ZM15.793,21.454l-1.207.936c-.946.734-.85.947-.975-.165l-.195-1.749h0l5.6-12.58,2.375.977Zm-1.967-.807,1.56.64-.8.616c-.622.483-.56.622-.64-.107l-.129-1.149Z" fill="#8a8fa3"/>
</svg>
