<svg xmlns="http://www.w3.org/2000/svg" width="28" height="28" viewBox="0 0 28 28">
  <g id="noun-vector-design-1919208" transform="translate(-5.769)">
    <path id="Path_60" data-name="Path 60" d="M122.128,332.594h-.2v-1.548l-1.662-1.658h-3.214l-2.673-2.667-1.4-.456-3.6.557h-5.775v6.413h5.518l4.5,4.489h8.111l7.581-3.425v-2.167l-2.264-1.6Zm5.9.86-6.559,2.988h-7.314l-4.5-4.489h-4.765V328.1h4.539l3.439-.525.814.265,2.832,2.825h3.214l.909.907v1.017h-4.554l-1.74-1.736-.909.907,2.117,2.112h6.811l4.5-1.9,1.163.821Z" transform="translate(-97.838 -309.724)" fill="#8a8fa3"/>
    <path id="Path_61" data-name="Path 61" d="M421.122,63.43,418.438,56h-4.987l-2.684,7.43,1.822,4.274-1.774,1.46v3.509h10.26V69.156l-1.789-1.418Zm-6.772-6.147h.952v5.451h1.282V57.283h.952l2.206,6.108L418,67.487h-4.107l-1.746-4.1Zm5.441,14.108h-7.7V69.769l1.215-1h5.209l1.271,1.007Z" transform="translate(-387.353 -55.414)" fill="#8a8fa3"/>
    <path id="Path_62" data-name="Path 62" d="M132.56,57.889l3.152,3.151,2.51-2.51h4.6l2.51,2.51,3.151-3.151-3.151-3.152-2.51,2.51h-4.6l-1.869-1.869V51.421l1.869-1.869h4.6l2.51,2.51,3.151-3.151-3.151-3.151-2.51,2.51h-4.6l-2.51-2.51-3.152,3.151,2.51,2.51v3.958Zm12.77-1.338,1.337,1.338-1.337,1.337-1.338-1.337Zm-9.619,2.675-1.338-1.337,1.338-1.338,1.337,1.338Zm9.619-11.653,1.337,1.337-1.337,1.337-1.338-1.337Zm-9.619,0,1.337,1.337-1.337,1.337-1.338-1.337Z" transform="translate(-125.133 -45.76)" fill="#8a8fa3"/>
  </g>
</svg>
