<svg id="noun-write-1993091" xmlns="http://www.w3.org/2000/svg" width="28" height="20" viewBox="0 0 28 20">
  <path id="Path_105" data-name="Path 105" d="M98.52,115.709l1.49-2.36a.624.624,0,0,1,.172-.18l.515-.358h0a.621.621,0,0,1,.008-.212,22.462,22.462,0,0,1,2.836-5.01c.393-.6.732-1.11.9-1.4a5.093,5.093,0,0,1,1.833-1.831.615.615,0,0,1,.13-.051c1.169-.31,2.379-.528,4.384-.888l1.187-.214a5.231,5.231,0,0,1,2.409.1l2.771-1.924a1.646,1.646,0,0,1,2.291.423,1.8,1.8,0,0,1-.349,2.408l-1.79,1.243,8.933,8.974a.628.628,0,0,1,0,.887l-5.6,5.592a.621.621,0,0,1-.88,0l-3.4-3.415a10.052,10.052,0,0,1-5.458-1.575l-.6,0c-2.156,0-3.571-.123-4.462-1.019-.4-.4-.7-.683-.9-.86L102.126,116a.623.623,0,0,1-.23.1l-2.725.56a.622.622,0,0,1-.638-.258.629.629,0,0,1-.013-.691ZM112.2,104.44l-1.188.214c-1.928.347-3.109.559-4.207.846h0a3.931,3.931,0,0,0-1.284,1.323c-.185.319-.517.822-.938,1.459-.6.909-1.461,2.214-2.044,3.252l10.31-7.159a4.551,4.551,0,0,0-.651.066Zm6.224-1.923a.414.414,0,0,0-.558-.1l-10.371,7.2h0a9.863,9.863,0,0,1,1.386.173l1.876-1.3,7.637-5.3a.577.577,0,0,0,.03-.666Zm-6.958,7-.93.646h0a11.505,11.505,0,0,0,2.5.421l-1.27-1.276-.3.209Zm5.12,6.717a.628.628,0,0,1,.471.183l3.151,3.166,4.713-4.709-8.652-8.692-3.46,2.4,1.828,1.836h0a.628.628,0,0,1-.049.929c-1.027.836-2.692.432-4.453,0-2.055-.5-3.555-.78-4.313-.025a12.981,12.981,0,0,1,3.5,2.02c1.985,1.423,4.234,3.036,7.265,2.885Zm-9.861-2.215a3.459,3.459,0,0,0,2.255.625l-.384-.274h0a21.3,21.3,0,0,0-2.11-1.394l-.487.339c.192.18.432.41.726.7Zm-5.2.879,3.542-2.46c-.092-.017-.185-.038-.277-.046h0a.613.613,0,0,1-.554-.513L101,114.127l-.637,1.009Z" transform="translate(-98.423 -101.092)" fill="#323232"/>
</svg>
